<svg width="32" height="32" viewBox="0 0 32 32" fill="none" xmlns="http://www.w3.org/2000/svg">
<g id="shopping-cart">
<path id="Vector" d="M13 31C13.5523 31 14 30.5523 14 30C14 29.4477 13.5523 29 13 29C12.4477 29 12 29.4477 12 30C12 30.5523 12.4477 31 13 31Z" stroke="white" stroke-width="2" stroke-linecap="round" stroke-linejoin="round"/>
<path id="Vector_2" d="M25 31C25.5523 31 26 30.5523 26 30C26 29.4477 25.5523 29 25 29C24.4477 29 24 29.4477 24 30C24 30.5523 24.4477 31 25 31Z" stroke="white" stroke-width="2" stroke-linecap="round" stroke-linejoin="round"/>
<path id="Vector_3" d="M3 4H7.72727L10.8945 20.9603C11.0026 21.5434 11.2986 22.0672 11.7307 22.4401C12.1629 22.8129 12.7036 23.0109 13.2582 22.9995H24.7455C25.3001 23.0109 25.8408 22.8129 26.2729 22.4401C26.705 22.0672 27.001 21.5434 27.1091 20.9603L29 10.3332H8.90909" stroke="white" stroke-width="2" stroke-linecap="round" stroke-linejoin="round"/>
</g>
</svg>
