<svg width="24" height="24" viewBox="0 0 24 24" fill="none" xmlns="http://www.w3.org/2000/svg">
<path d="M20.8421 4.61012C20.3313 4.09912 19.7249 3.69376 19.0574 3.4172C18.39 3.14064 17.6746 2.99829 16.9521 2.99829C16.2296 2.99829 15.5142 3.14064 14.8467 3.4172C14.1793 3.69376 13.5728 4.09912 13.0621 4.61012L12.0021 5.67012L10.9421 4.61012C9.91038 3.57842 8.51111 2.99883 7.05207 2.99883C5.59304 2.99883 4.19376 3.57842 3.16207 4.61012C2.13038 5.64181 1.55078 7.04108 1.55078 8.50012C1.55078 9.95915 2.13038 11.3584 3.16207 12.3901L4.22207 13.4501L12.0021 21.2301L19.7821 13.4501L20.8421 12.3901C21.3531 11.8794 21.7584 11.2729 22.035 10.6055C22.3115 9.93801 22.4539 9.2226 22.4539 8.50012C22.4539 7.77763 22.3115 7.06222 22.035 6.39476C21.7584 5.7273 21.3531 5.12087 20.8421 4.61012Z" fill="#FC573B" stroke="#FC573B" stroke-width="2" stroke-linecap="round" stroke-linejoin="round"/>
</svg>
