<svg width="38" height="36" viewBox="0 0 38 36" fill="none" xmlns="http://www.w3.org/2000/svg">
<g id="socials/vk/no/yes">
<rect id="Rectangle 1" x="0.5" width="37.5" height="36" rx="18" fill="white"/>
<path id="Vector" d="M20.1711 24.3C13.1243 24.3 9.10497 19.5702 8.9375 11.7H12.4673C12.5833 17.4765 15.1855 19.9234 17.2468 20.4279V11.7H20.5705V16.6819C22.6059 16.4675 24.7444 14.1972 25.4658 11.7H28.7895C28.5177 12.9951 27.9758 14.2214 27.1978 15.3022C26.4197 16.383 25.4222 17.2949 24.2678 17.981C25.5564 18.608 26.6947 19.4953 27.6074 20.5845C28.52 21.6737 29.1864 22.9401 29.5625 24.3H25.9039C25.5662 23.1188 24.8801 22.0615 23.9313 21.2605C22.9825 20.4595 21.8134 19.9505 20.5705 19.7972V24.3H20.1711Z" fill="black"/>
</g>
</svg>
